<?xml version="1.0" encoding="utf-8"?>
<!-- Generator: Adobe Illustrator 27.9.0, SVG Export Plug-In . SVG Version: 6.00 Build 0)  -->
<svg version="1.1" id="Capa_1" xmlns="http://www.w3.org/2000/svg" xmlns:xlink="http://www.w3.org/1999/xlink" x="0px" y="0px"
	 viewBox="0 0 564 437.9" style="enable-background:new 0 0 564 437.9;" xml:space="preserve">
<style type="text/css">
	.st0{fill:#FFB735;}
	.st1{fill:#FFFFFF;}
	.st2{fill:#F9B538;}
</style>
<g>
	<polygon class="st0" points="280.4,88.5 289.5,114.1 314,102.4 302.4,127 327.9,136 302.4,145.1 314,169.7 289.5,158 280.4,183.6 
		271.3,158 246.8,169.7 258.5,145.1 232.9,136 258.5,127 246.8,102.4 271.3,114.1 	"/>
</g>
<g>
	<path class="st1" d="M162.6,201.4c1.3,0,2,0.7,2.3,1.9l5,20.5c0.1,0.7,0.7,0.7,0.8,0l5-20.5c0.3-1.2,1-1.9,2.3-1.9h14.6
		c1.4,0,2.1,0.7,2.1,2.1v45.1c0,1.3-0.7,2.1-2.1,2.1h-7.9c-1.3,0-2.1-0.8-2.1-2.1v-27.8c0-0.5-0.6-0.6-0.8-0.1l-6.8,28.1
		c-0.3,1.2-1.1,1.8-2.3,1.8H168c-1.3,0-2-0.6-2.3-1.8l-6.8-28.1c-0.1-0.5-0.8-0.4-0.8,0.1v27.8c0,1.3-0.7,2.1-2.1,2.1H148
		c-1.4,0-2.1-0.8-2.1-2.1v-45.1c0-1.4,0.7-2.1,2.1-2.1H162.6z"/>
	<path class="st1" d="M233.4,201.4c1.4,0,2.1,0.7,2.1,2.1v7.9c0,1.3-0.7,2.1-2.1,2.1h-17.1c-1.3,0-2.1,0.7-2.1,2.1v2.3
		c0,1.3,0.8,2.1,2.1,2.1h10.9c1.4,0,2.1,0.7,2.1,2.1v7.9c0,1.3-0.7,2.1-2.1,2.1h-10.9c-1.3,0-2.1,0.7-2.1,2.1v2.3
		c0,1.3,0.8,2.1,2.1,2.1h17.1c1.4,0,2.1,0.7,2.1,2.1v7.9c0,1.4-0.7,2.1-2.1,2.1h-29.6c-1.3,0-2.1-0.8-2.1-2.1v-45.1
		c0-1.4,0.8-2.1,2.1-2.1H233.4z"/>
	<path class="st1" d="M257.7,201.4c1.3,0,2,0.7,2.3,1.9l5,20.5c0.1,0.7,0.7,0.7,0.8,0l5-20.5c0.3-1.2,1-1.9,2.3-1.9h14.6
		c1.4,0,2.1,0.7,2.1,2.1v45.1c0,1.3-0.7,2.1-2.1,2.1h-7.9c-1.3,0-2.1-0.8-2.1-2.1v-27.8c0-0.5-0.6-0.6-0.8-0.1l-6.8,28.1
		c-0.3,1.2-1.1,1.8-2.3,1.8H263c-1.3,0-2-0.6-2.3-1.8l-6.8-28.1c-0.1-0.5-0.8-0.4-0.8,0.1v27.8c0,1.3-0.7,2.1-2.1,2.1h-7.9
		c-1.4,0-2.1-0.8-2.1-2.1v-45.1c0-1.4,0.7-2.1,2.1-2.1H257.7z"/>
	<path class="st1" d="M331.5,234.9c0,4.7-1,17.1-17.7,17.1s-17.7-12.5-17.7-17.1v-17.6c0-4.7,1-17.1,17.7-17.1s17.7,12.5,17.7,17.1
		V234.9z M319.4,221c0-5.4-0.4-8.7-5.6-8.7c-5.2,0-5.6,3.3-5.6,8.7v10.1c0,5.4,0.4,8.7,5.6,8.7c5.2,0,5.6-3.3,5.6-8.7V221z"/>
	<path class="st1" d="M375,246.9c1,1.8-0.1,3.8-2.3,3.8h-8c-0.7,0-1.3-0.4-1.6-1l-7.3-14.2c-0.1-0.2-0.4-0.4-0.6-0.4h-2.8
		c-1.3,0-2.2,0.9-2.2,2.2v11.1c0,1.3-0.9,2.2-2.2,2.2H340c-1.3,0-2.2-0.9-2.2-2.2v-45c0-1.3,0.9-2.2,2.2-2.2h15.4
		c12.5,0,17.6,5.4,17.6,16.9c0,6.6-1.6,11.1-5.4,13.8c-0.3,0.2-0.4,0.6-0.2,0.9L375,246.9z M352.3,213.5c-1.3,0-2.2,0.9-2.2,2.2v5.2
		c0,1.3,0.9,2.2,2.2,2.2h3.6c3.4,0,5.1-0.4,5.1-4.8c0-4.4-1.7-4.8-5.1-4.8H352.3z"/>
	<path class="st1" d="M389.2,201.4c1.2,0,2,0.5,2.4,1.6l5.2,13.1c0.3,0.6,0.7,0.6,1,0L403,203c0.4-1.1,1.2-1.6,2.4-1.6h10.1
		c1.6,0,2.3,1,1.6,2.5l-12.6,28.2c-0.1,0.3-0.1,0.6-0.1,0.8v15.7c0,1.3-0.7,2.1-2.1,2.1h-9.9c-1.3,0-2.1-0.8-2.1-2.1v-15.7
		c0-0.3,0-0.6-0.1-0.8l-12.7-28.2c-0.7-1.5,0-2.5,1.6-2.5H389.2z"/>
</g>
<g>
	<path class="st2" d="M194.8,287.7c0-4.7,1-17.1,17.7-17.1c14.8,0,17.3,9.7,17.6,15.2c0.1,1.3-0.6,2-1.8,2.3l-8,1.8
		c-1.4,0.3-2.2-0.4-2.3-1.8c-0.3-3.4-1.5-5.4-5.5-5.4c-5.2,0-5.6,3.3-5.6,8.7v10.1c0,5.4,0.4,8.7,5.6,8.7c5.2,0,5.6-3.3,5.6-6.8H214
		c-1.3,0-2.1-0.8-2.1-2.1v-5.6c0-1.4,0.8-2.1,2.1-2.1h14.1c1.4,0,2.1,0.7,2.1,2.1v9.5c0,4.7-1,17.1-17.7,17.1
		c-16.7,0-17.7-12.5-17.7-17.1V287.7z"/>
	<path class="st2" d="M270.6,318.8c0,1.6-0.7,2.4-2.1,2.4h-7.9c-1.3,0-2.1-0.7-2.1-2.1V313c0-1.4-0.7-2.1-2.1-2.1h-6.1
		c-1.3,0-2.1,0.7-2.1,2.1v6.1c0,1.4-0.7,2.1-2.1,2.1h-7.9c-1.3,0-2.1-0.8-2.1-2.4v-29.9c0-8.9,1.4-18.3,17.3-18.3
		s17.3,9.4,17.3,18.3V318.8z M258.5,288.9c0-3.4-0.5-5.1-5.1-5.1c-4.7,0-5.1,1.7-5.1,5.1v7.7c0,1.3,0.8,2.1,2.1,2.1h6.1
		c1.4-0.1,2.1-0.8,2.1-2.2V288.9z"/>
	<path class="st2" d="M294,271.9c1.3,0,2,0.7,2.3,1.9l5,20.5c0.1,0.7,0.7,0.7,0.8,0l5-20.5c0.3-1.2,1-1.9,2.3-1.9h14.6
		c1.4,0,2.1,0.7,2.1,2.1v45.1c0,1.3-0.7,2.1-2.1,2.1H316c-1.3,0-2.1-0.8-2.1-2.1v-27.8c0-0.5-0.6-0.6-0.8-0.1l-6.8,28.1
		c-0.3,1.2-1.1,1.8-2.3,1.8h-4.7c-1.3,0-2-0.6-2.3-1.8l-6.8-28.1c-0.1-0.5-0.8-0.4-0.8,0.1v27.8c0,1.3-0.7,2.1-2.1,2.1h-7.9
		c-1.4,0-2.1-0.8-2.1-2.1V274c0-1.4,0.7-2.1,2.1-2.1H294z"/>
	<path class="st2" d="M364.8,271.9c1.4,0,2.1,0.7,2.1,2.1v7.9c0,1.3-0.7,2.1-2.1,2.1h-17.1c-1.3,0-2.1,0.7-2.1,2.1v2.3
		c0,1.3,0.8,2.1,2.1,2.1h10.9c1.4,0,2.1,0.7,2.1,2.1v7.9c0,1.3-0.7,2.1-2.1,2.1h-10.9c-1.3,0-2.1,0.7-2.1,2.1v2.3
		c0,1.3,0.8,2.1,2.1,2.1h17.1c1.4,0,2.1,0.7,2.1,2.1v7.9c0,1.4-0.7,2.1-2.1,2.1h-29.6c-1.3,0-2.1-0.8-2.1-2.1V274
		c0-1.4,0.8-2.1,2.1-2.1H364.8z"/>
</g>
</svg>
